<mxfile host="app.diagrams.net" modified="2023-05-22T06:44:30.409Z" agent="Mozilla/5.0 (Windows NT 10.0; Win64; x64) AppleWebKit/537.36 (KHTML, like Gecko) Chrome/112.0.0.0 Safari/537.36" etag="l7ZpWId5jf9hlH1unptJ" version="21.3.2" type="github">
  <diagram name="第 1 页" id="Z9JZYcS3g_79CGS5Mm5E">
    <mxGraphModel dx="1363" dy="909" grid="1" gridSize="10" guides="1" tooltips="1" connect="1" arrows="1" fold="1" page="1" pageScale="1" pageWidth="827" pageHeight="1169" math="0" shadow="0">
      <root>
        <mxCell id="0" />
        <mxCell id="1" parent="0" />
        <mxCell id="q1fCY5YtH2oRBpEaW-7M-75" style="edgeStyle=orthogonalEdgeStyle;rounded=0;orthogonalLoop=1;jettySize=auto;html=1;exitX=0.5;exitY=1;exitDx=0;exitDy=0;entryX=0.5;entryY=0;entryDx=0;entryDy=0;" edge="1" parent="1" source="q1fCY5YtH2oRBpEaW-7M-38" target="q1fCY5YtH2oRBpEaW-7M-39">
          <mxGeometry relative="1" as="geometry" />
        </mxCell>
        <mxCell id="q1fCY5YtH2oRBpEaW-7M-38" value="每个非终结符Z&lt;br&gt;FIRST(Z) = Z" style="rounded=0;whiteSpace=wrap;html=1;" vertex="1" parent="1">
          <mxGeometry x="180" y="230" width="120" height="60" as="geometry" />
        </mxCell>
        <mxCell id="q1fCY5YtH2oRBpEaW-7M-77" style="edgeStyle=orthogonalEdgeStyle;rounded=0;orthogonalLoop=1;jettySize=auto;html=1;exitX=0.5;exitY=1;exitDx=0;exitDy=0;entryX=0.5;entryY=0;entryDx=0;entryDy=0;" edge="1" parent="1" source="q1fCY5YtH2oRBpEaW-7M-39" target="q1fCY5YtH2oRBpEaW-7M-40">
          <mxGeometry relative="1" as="geometry" />
        </mxCell>
        <mxCell id="q1fCY5YtH2oRBpEaW-7M-39" value="产生式X-&amp;gt;Y1 Y2 ...Yk" style="rounded=0;whiteSpace=wrap;html=1;" vertex="1" parent="1">
          <mxGeometry x="180" y="330" width="120" height="60" as="geometry" />
        </mxCell>
        <mxCell id="q1fCY5YtH2oRBpEaW-7M-78" style="edgeStyle=orthogonalEdgeStyle;rounded=0;orthogonalLoop=1;jettySize=auto;html=1;exitX=0.5;exitY=1;exitDx=0;exitDy=0;entryX=0.5;entryY=0;entryDx=0;entryDy=0;" edge="1" parent="1" source="q1fCY5YtH2oRBpEaW-7M-40" target="q1fCY5YtH2oRBpEaW-7M-41">
          <mxGeometry relative="1" as="geometry" />
        </mxCell>
        <mxCell id="q1fCY5YtH2oRBpEaW-7M-40" value="i = 1" style="rounded=0;whiteSpace=wrap;html=1;" vertex="1" parent="1">
          <mxGeometry x="180" y="440" width="120" height="60" as="geometry" />
        </mxCell>
        <mxCell id="q1fCY5YtH2oRBpEaW-7M-79" style="edgeStyle=orthogonalEdgeStyle;rounded=0;orthogonalLoop=1;jettySize=auto;html=1;exitX=0.5;exitY=1;exitDx=0;exitDy=0;entryX=0.5;entryY=0;entryDx=0;entryDy=0;" edge="1" parent="1" source="q1fCY5YtH2oRBpEaW-7M-41" target="q1fCY5YtH2oRBpEaW-7M-48">
          <mxGeometry relative="1" as="geometry" />
        </mxCell>
        <mxCell id="q1fCY5YtH2oRBpEaW-7M-41" value="i &amp;lt;= k" style="rhombus;whiteSpace=wrap;html=1;" vertex="1" parent="1">
          <mxGeometry x="165" y="530" width="150" height="80" as="geometry" />
        </mxCell>
        <mxCell id="q1fCY5YtH2oRBpEaW-7M-85" style="edgeStyle=orthogonalEdgeStyle;rounded=0;orthogonalLoop=1;jettySize=auto;html=1;exitX=0;exitY=0.5;exitDx=0;exitDy=0;entryX=0;entryY=0.5;entryDx=0;entryDy=0;" edge="1" parent="1" source="q1fCY5YtH2oRBpEaW-7M-46" target="q1fCY5YtH2oRBpEaW-7M-48">
          <mxGeometry relative="1" as="geometry" />
        </mxCell>
        <mxCell id="q1fCY5YtH2oRBpEaW-7M-86" value="No" style="edgeLabel;html=1;align=center;verticalAlign=middle;resizable=0;points=[];" vertex="1" connectable="0" parent="q1fCY5YtH2oRBpEaW-7M-85">
          <mxGeometry x="0.0971" y="-1" relative="1" as="geometry">
            <mxPoint as="offset" />
          </mxGeometry>
        </mxCell>
        <mxCell id="q1fCY5YtH2oRBpEaW-7M-87" style="edgeStyle=orthogonalEdgeStyle;rounded=0;orthogonalLoop=1;jettySize=auto;html=1;exitX=0.5;exitY=1;exitDx=0;exitDy=0;" edge="1" parent="1" source="q1fCY5YtH2oRBpEaW-7M-46">
          <mxGeometry relative="1" as="geometry">
            <mxPoint x="240" y="1190" as="targetPoint" />
          </mxGeometry>
        </mxCell>
        <mxCell id="q1fCY5YtH2oRBpEaW-7M-46" value="First, Follow,nullnable 不变化" style="rhombus;whiteSpace=wrap;html=1;" vertex="1" parent="1">
          <mxGeometry x="165" y="1060" width="150" height="80" as="geometry" />
        </mxCell>
        <mxCell id="q1fCY5YtH2oRBpEaW-7M-50" value="Yes" style="edgeStyle=orthogonalEdgeStyle;rounded=0;orthogonalLoop=1;jettySize=auto;html=1;exitX=1;exitY=0.5;exitDx=0;exitDy=0;entryX=0;entryY=0.5;entryDx=0;entryDy=0;" edge="1" parent="1" source="q1fCY5YtH2oRBpEaW-7M-48" target="q1fCY5YtH2oRBpEaW-7M-49">
          <mxGeometry relative="1" as="geometry" />
        </mxCell>
        <mxCell id="q1fCY5YtH2oRBpEaW-7M-48" value="所有Yi可空" style="rhombus;whiteSpace=wrap;html=1;" vertex="1" parent="1">
          <mxGeometry x="180" y="640" width="120" height="80" as="geometry" />
        </mxCell>
        <mxCell id="q1fCY5YtH2oRBpEaW-7M-64" style="edgeStyle=orthogonalEdgeStyle;rounded=0;orthogonalLoop=1;jettySize=auto;html=1;exitX=1;exitY=0.5;exitDx=0;exitDy=0;entryX=0;entryY=0.5;entryDx=0;entryDy=0;" edge="1" parent="1" source="q1fCY5YtH2oRBpEaW-7M-49" target="q1fCY5YtH2oRBpEaW-7M-54">
          <mxGeometry relative="1" as="geometry" />
        </mxCell>
        <mxCell id="q1fCY5YtH2oRBpEaW-7M-49" value="nullable[X] = true" style="rounded=0;whiteSpace=wrap;html=1;" vertex="1" parent="1">
          <mxGeometry x="330" y="650" width="120" height="60" as="geometry" />
        </mxCell>
        <mxCell id="q1fCY5YtH2oRBpEaW-7M-63" style="edgeStyle=orthogonalEdgeStyle;rounded=0;orthogonalLoop=1;jettySize=auto;html=1;exitX=1;exitY=0.5;exitDx=0;exitDy=0;entryX=0;entryY=0.5;entryDx=0;entryDy=0;" edge="1" parent="1" source="q1fCY5YtH2oRBpEaW-7M-54" target="q1fCY5YtH2oRBpEaW-7M-56">
          <mxGeometry relative="1" as="geometry" />
        </mxCell>
        <mxCell id="q1fCY5YtH2oRBpEaW-7M-54" value="j = i + 1" style="rounded=0;whiteSpace=wrap;html=1;" vertex="1" parent="1">
          <mxGeometry x="480" y="650" width="120" height="60" as="geometry" />
        </mxCell>
        <mxCell id="q1fCY5YtH2oRBpEaW-7M-66" value="Yes" style="edgeStyle=orthogonalEdgeStyle;rounded=0;orthogonalLoop=1;jettySize=auto;html=1;exitX=0.5;exitY=1;exitDx=0;exitDy=0;entryX=0.5;entryY=0;entryDx=0;entryDy=0;" edge="1" parent="1" source="q1fCY5YtH2oRBpEaW-7M-55" target="q1fCY5YtH2oRBpEaW-7M-65">
          <mxGeometry relative="1" as="geometry" />
        </mxCell>
        <mxCell id="q1fCY5YtH2oRBpEaW-7M-71" style="edgeStyle=orthogonalEdgeStyle;rounded=0;orthogonalLoop=1;jettySize=auto;html=1;exitX=0;exitY=0.5;exitDx=0;exitDy=0;entryX=0;entryY=0.5;entryDx=0;entryDy=0;" edge="1" parent="1" source="q1fCY5YtH2oRBpEaW-7M-55" target="q1fCY5YtH2oRBpEaW-7M-69">
          <mxGeometry relative="1" as="geometry" />
        </mxCell>
        <mxCell id="q1fCY5YtH2oRBpEaW-7M-72" value="No" style="edgeLabel;html=1;align=center;verticalAlign=middle;resizable=0;points=[];" vertex="1" connectable="0" parent="q1fCY5YtH2oRBpEaW-7M-71">
          <mxGeometry x="0.1911" y="-4" relative="1" as="geometry">
            <mxPoint as="offset" />
          </mxGeometry>
        </mxCell>
        <mxCell id="q1fCY5YtH2oRBpEaW-7M-55" value="Yi+1-Yk可空" style="rhombus;whiteSpace=wrap;html=1;" vertex="1" parent="1">
          <mxGeometry x="620" y="750" width="120" height="80" as="geometry" />
        </mxCell>
        <mxCell id="q1fCY5YtH2oRBpEaW-7M-60" value="Yes" style="edgeStyle=orthogonalEdgeStyle;rounded=0;orthogonalLoop=1;jettySize=auto;html=1;exitX=0.5;exitY=0;exitDx=0;exitDy=0;entryX=0.5;entryY=1;entryDx=0;entryDy=0;" edge="1" parent="1" source="q1fCY5YtH2oRBpEaW-7M-56" target="q1fCY5YtH2oRBpEaW-7M-57">
          <mxGeometry relative="1" as="geometry" />
        </mxCell>
        <mxCell id="q1fCY5YtH2oRBpEaW-7M-62" value="No" style="edgeStyle=orthogonalEdgeStyle;rounded=0;orthogonalLoop=1;jettySize=auto;html=1;exitX=0.5;exitY=1;exitDx=0;exitDy=0;entryX=0.5;entryY=0;entryDx=0;entryDy=0;" edge="1" parent="1" source="q1fCY5YtH2oRBpEaW-7M-56" target="q1fCY5YtH2oRBpEaW-7M-55">
          <mxGeometry relative="1" as="geometry" />
        </mxCell>
        <mxCell id="q1fCY5YtH2oRBpEaW-7M-56" value="Y1-Yi-1可空" style="rhombus;whiteSpace=wrap;html=1;" vertex="1" parent="1">
          <mxGeometry x="620" y="640" width="120" height="80" as="geometry" />
        </mxCell>
        <mxCell id="q1fCY5YtH2oRBpEaW-7M-61" style="edgeStyle=orthogonalEdgeStyle;rounded=0;orthogonalLoop=1;jettySize=auto;html=1;exitX=1;exitY=0.5;exitDx=0;exitDy=0;entryX=1;entryY=0.5;entryDx=0;entryDy=0;" edge="1" parent="1" source="q1fCY5YtH2oRBpEaW-7M-57" target="q1fCY5YtH2oRBpEaW-7M-55">
          <mxGeometry relative="1" as="geometry" />
        </mxCell>
        <mxCell id="q1fCY5YtH2oRBpEaW-7M-57" value="FIRST[X]，FIRST[Y]取交集给FOLLOW[X]" style="rounded=0;whiteSpace=wrap;html=1;" vertex="1" parent="1">
          <mxGeometry x="620" y="555" width="120" height="60" as="geometry" />
        </mxCell>
        <mxCell id="q1fCY5YtH2oRBpEaW-7M-70" style="edgeStyle=orthogonalEdgeStyle;rounded=0;orthogonalLoop=1;jettySize=auto;html=1;exitX=0.5;exitY=1;exitDx=0;exitDy=0;entryX=0.5;entryY=0;entryDx=0;entryDy=0;" edge="1" parent="1" source="q1fCY5YtH2oRBpEaW-7M-65" target="q1fCY5YtH2oRBpEaW-7M-69">
          <mxGeometry relative="1" as="geometry" />
        </mxCell>
        <mxCell id="q1fCY5YtH2oRBpEaW-7M-65" value="FIRST[X]，FIRST[Y]取交集给FOLLOW[Y]" style="rounded=0;whiteSpace=wrap;html=1;" vertex="1" parent="1">
          <mxGeometry x="620" y="860" width="120" height="60" as="geometry" />
        </mxCell>
        <mxCell id="q1fCY5YtH2oRBpEaW-7M-74" value="Yes" style="edgeStyle=orthogonalEdgeStyle;rounded=0;orthogonalLoop=1;jettySize=auto;html=1;exitX=0.5;exitY=1;exitDx=0;exitDy=0;entryX=0.5;entryY=0;entryDx=0;entryDy=0;" edge="1" parent="1" source="q1fCY5YtH2oRBpEaW-7M-69" target="q1fCY5YtH2oRBpEaW-7M-73">
          <mxGeometry relative="1" as="geometry" />
        </mxCell>
        <mxCell id="q1fCY5YtH2oRBpEaW-7M-90" style="edgeStyle=orthogonalEdgeStyle;rounded=0;orthogonalLoop=1;jettySize=auto;html=1;exitX=1;exitY=0.5;exitDx=0;exitDy=0;" edge="1" parent="1" source="q1fCY5YtH2oRBpEaW-7M-69">
          <mxGeometry relative="1" as="geometry">
            <mxPoint x="320" y="1090" as="targetPoint" />
          </mxGeometry>
        </mxCell>
        <mxCell id="q1fCY5YtH2oRBpEaW-7M-91" value="No" style="edgeLabel;html=1;align=center;verticalAlign=middle;resizable=0;points=[];" vertex="1" connectable="0" parent="q1fCY5YtH2oRBpEaW-7M-90">
          <mxGeometry x="0.4189" y="2" relative="1" as="geometry">
            <mxPoint as="offset" />
          </mxGeometry>
        </mxCell>
        <mxCell id="q1fCY5YtH2oRBpEaW-7M-69" value="Yi+1-Yj-1都可空" style="rhombus;whiteSpace=wrap;html=1;" vertex="1" parent="1">
          <mxGeometry x="620" y="960" width="120" height="80" as="geometry" />
        </mxCell>
        <mxCell id="q1fCY5YtH2oRBpEaW-7M-81" style="edgeStyle=orthogonalEdgeStyle;rounded=0;orthogonalLoop=1;jettySize=auto;html=1;exitX=0;exitY=0.5;exitDx=0;exitDy=0;entryX=1;entryY=0.5;entryDx=0;entryDy=0;" edge="1" parent="1" source="q1fCY5YtH2oRBpEaW-7M-73" target="q1fCY5YtH2oRBpEaW-7M-46">
          <mxGeometry relative="1" as="geometry" />
        </mxCell>
        <mxCell id="q1fCY5YtH2oRBpEaW-7M-73" value="FOLLOW[Yi] = FOLLOW[Yi] 交 FIRST[Yj]" style="rounded=0;whiteSpace=wrap;html=1;" vertex="1" parent="1">
          <mxGeometry x="620" y="1070" width="120" height="60" as="geometry" />
        </mxCell>
        <mxCell id="q1fCY5YtH2oRBpEaW-7M-88" value="结束" style="rounded=0;whiteSpace=wrap;html=1;" vertex="1" parent="1">
          <mxGeometry x="180" y="1200" width="120" height="60" as="geometry" />
        </mxCell>
      </root>
    </mxGraphModel>
  </diagram>
</mxfile>
